<?xml version="1.0" encoding="UTF-8"?>
<svg xmlns="http://www.w3.org/2000/svg" xmlns:xlink="http://www.w3.org/1999/xlink" width="1122pt" height="1122pt" viewBox="0 0 1122 1122" version="1.1">
<g id="surface1">
<rect x="0" y="0" width="1122" height="1122" style="fill:rgb(100%,100%,100%);fill-opacity:1;stroke:none;"/>
<path style=" stroke:none;fill-rule:nonzero;fill:rgb(38.035583%,43.138123%,49.021912%);fill-opacity:1;" d="M 765.042969 842.054688 C 766.910156 847.8125 770.996094 852.566406 776.414063 855.300781 C 781.832031 858.027344 788.039063 858.480469 793.800781 856.558594 L 841.464844 840.675781 C 853.367188 836.695313 859.78125 823.847656 855.835938 811.972656 C 851.847656 800.070313 838.996094 793.632813 827.132813 797.601563 L 801.113281 806.28125 L 733.808594 599.574219 C 730.199219 588.453125 718.640625 581.871094 707.222656 584.488281 L 603.578125 608 C 595.265625 592.609375 584.761719 578.542969 572.472656 566.296875 C 550.359375 544.171875 522.414063 527.761719 491.167969 519.519531 L 486.433594 459.726563 C 485.476563 461.730469 484.308594 463.65625 482.855469 465.417969 L 445.03125 511.652344 L 445.164063 513.546875 L 445.097656 513.546875 L 443.4375 513.589844 L 415.683594 547.519531 C 425.191406 545.621094 435.027344 544.597656 445.097656 544.597656 C 445.347656 544.597656 445.589844 544.609375 445.828125 544.609375 C 445.964844 544.609375 446.089844 544.597656 446.226563 544.597656 C 447.101563 544.597656 447.921875 544.652344 448.773438 544.664063 C 464.921875 544.933594 480.433594 547.769531 494.933594 552.773438 C 516.496094 560.230469 535.808594 572.4375 551.648438 588.257813 C 559.734375 596.363281 566.898438 605.414063 572.976563 615.195313 C 581.03125 628.15625 587.125 642.453125 590.898438 657.683594 C 593.757813 669.203125 595.296875 681.242188 595.296875 693.660156 C 595.285156 734.875 578.644531 772.027344 551.648438 799.0625 C 524.621094 826.0625 487.445313 842.703125 446.226563 842.730469 C 446.046875 842.730469 445.851563 842.703125 445.667969 842.703125 C 445.476563 842.703125 445.28125 842.730469 445.097656 842.730469 C 403.902344 842.703125 366.738281 826.0625 339.707031 799.0625 C 312.71875 772.027344 296.066406 734.875 296.050781 693.660156 C 296.066406 652.457031 312.71875 615.285156 339.707031 588.257813 C 341.726563 586.265625 343.796875 584.328125 345.90625 582.441406 C 342.175781 578.199219 339.746094 572.839844 339.152344 567.183594 C 338.382813 559.910156 340.589844 552.523438 345.195313 546.878906 L 350.507813 540.40625 C 338.59375 547.769531 327.582031 556.449219 317.746094 566.296875 C 285.183594 598.832031 265 643.964844 265 693.660156 C 265 743.34375 285.183594 788.472656 317.746094 821.023438 C 350.285156 853.597656 395.414063 873.796875 445.097656 873.78125 C 494.8125 873.796875 539.9375 853.597656 572.472656 821.023438 C 605.046875 788.472656 625.230469 743.34375 625.230469 693.660156 C 625.230469 678.902344 623.402344 664.546875 620.050781 650.796875 L 697.074219 633.320313 L 765.042969 842.054688 "/>
<path style=" stroke:none;fill-rule:nonzero;fill:rgb(38.035583%,43.138123%,49.021912%);fill-opacity:1;" d="M 361.738281 342.59375 C 361.738281 387.921875 393.742188 425.796875 436.363281 434.871094 L 438.25 432.574219 L 439.855469 430.621094 C 445.011719 424.324219 452.621094 420.660156 460.757813 420.554688 C 467.191406 420.464844 473.507813 422.679688 478.511719 426.765625 C 480.546875 428.4375 482.320313 430.359375 483.773438 432.480469 L 483.976563 432.765625 C 522.488281 420.871094 550.480469 384.988281 550.480469 342.59375 C 550.480469 290.480469 508.234375 248.21875 456.097656 248.21875 C 403.984375 248.21875 361.738281 290.480469 361.738281 342.59375 "/>
<path style=" stroke:none;fill-rule:nonzero;fill:rgb(66.601563%,83.201599%,78.514099%);fill-opacity:1;" d="M 369.820313 601.140625 L 350.496094 585.761719 C 349.222656 584.78125 348.09375 583.640625 347.027344 582.441406 C 344.925781 584.328125 342.855469 586.265625 340.84375 588.257813 C 313.832031 615.285156 297.191406 652.457031 297.175781 693.660156 C 297.191406 734.875 313.832031 772.027344 340.84375 799.0625 C 367.75 825.945313 404.691406 842.53125 445.667969 842.703125 C 445.851563 842.703125 446.046875 842.730469 446.226563 842.730469 C 487.445313 842.703125 524.621094 826.0625 551.648438 799.0625 C 578.644531 772.027344 595.285156 734.875 595.296875 693.660156 C 595.296875 681.242188 593.757813 669.203125 590.898438 657.683594 C 587.125 642.453125 581.03125 628.15625 572.976563 615.195313 C 566.898438 605.414063 559.734375 596.363281 551.648438 588.257813 C 535.808594 572.4375 516.496094 560.230469 494.933594 552.773438 C 480.433594 547.769531 464.921875 544.933594 448.773438 544.664063 C 447.921875 544.652344 447.101563 544.597656 446.226563 544.597656 C 446.089844 544.597656 445.964844 544.609375 445.828125 544.609375 C 435.902344 544.640625 426.1875 545.648438 416.804688 547.519531 L 406.488281 560.121094 L 425.734375 575.4375 C 432.398438 574.28125 439.230469 573.644531 446.226563 573.644531 C 447.855469 573.644531 449.46875 573.714844 451.082031 573.769531 C 467.636719 574.441406 483.332031 578.449219 497.5 585.152344 C 515.402344 593.601563 530.859375 606.371094 542.5625 622.109375 C 551.785156 634.476563 558.660156 648.691406 562.558594 664.105469 C 564.960938 673.554688 566.25 683.457031 566.25 693.660156 C 566.25 759.9375 512.519531 813.660156 446.226563 813.660156 C 379.957031 813.660156 326.222656 759.9375 326.222656 693.660156 C 326.222656 656.4375 343.199219 623.152344 369.820313 601.140625 "/>
<path style=" stroke:none;fill-rule:nonzero;fill:rgb(38.035583%,43.138123%,49.021912%);fill-opacity:1;" d="M 473.402344 459.367188 C 479.308594 452.152344 478.628906 441.722656 472.140625 435.28125 L 470.886719 434.140625 C 467.496094 431.367188 463.382813 430.042969 459.324219 430.09375 C 454.265625 430.160156 449.269531 432.363281 445.792969 436.546875 L 445.65625 436.664063 L 437.757813 446.324219 L 350.546875 552.933594 C 347.511719 556.621094 346.085938 561.425781 346.574219 566.175781 C 347.09375 570.925781 349.488281 575.304688 353.257813 578.289063 L 454.652344 659.023438 L 467.339844 669.109375 C 470.695313 671.792969 474.742188 673.066406 478.714844 673.007813 C 483.910156 672.941406 489.03125 670.636719 492.519531 666.257813 C 498.6875 658.519531 497.398438 647.242188 489.65625 641.070313 L 450.769531 610.113281 L 389.777344 561.570313 L 441.851563 497.902344 L 473.402344 459.367188 "/>
</g>
</svg>
